<?xml version="1.0" standalone="no"?>
<!DOCTYPE svg PUBLIC "-//W3C//DTD SVG 20010904//EN"
 "http://www.w3.org/TR/2001/REC-SVG-20010904/DTD/svg10.dtd">
<svg version="1.0" xmlns="http://www.w3.org/2000/svg"
 width="386.000000pt" height="72.000000pt" viewBox="0 0 386.000000 72.000000"
 preserveAspectRatio="xMidYMid meet">

<g transform="translate(0.000000,72.000000) scale(0.100000,-0.100000)"
fill="#000000" stroke="none">
<path d="M134 706 c-79 -35 -129 -148 -128 -286 1 -129 28 -190 98 -227 37
-19 123 -12 169 14 65 38 82 126 31 160 -20 13 -34 13 -86 4 -72 -12 -84 -21
-69 -49 10 -20 13 -20 46 -6 35 14 97 19 108 8 13 -14 -33 -82 -67 -98 -42
-20 -67 -20 -109 -2 -60 25 -72 56 -72 191 0 113 2 123 30 180 50 100 110 109
159 25 20 -33 28 -129 16 -169 -3 -8 2 -16 12 -18 23 -6 42 56 33 110 -4 23
-16 61 -27 83 -36 77 -87 105 -144 80z"/>
<path d="M1048 706 c-15 -15 -34 -76 -72 -233 -27 -114 -64 -196 -89 -201 -12
-3 -23 10 -37 40 -30 69 -70 216 -84 308 -13 90 -20 99 -71 86 -23 -6 -23 -7
-26 -173 -6 -335 -5 -343 37 -343 22 0 25 3 18 18 -12 23 -17 378 -6 398 6 10
15 -16 31 -88 39 -174 68 -253 102 -283 28 -23 34 -24 53 -12 31 20 66 97 102
227 l33 115 -6 -172 c-5 -150 -4 -175 11 -197 19 -30 53 -37 40 -8 -22 50 -7
447 18 496 17 31 -27 49 -54 22z"/>
<path d="M1276 711 c-7 -11 -15 -488 -8 -513 2 -10 12 -18 21 -18 15 0 17 10
17 67 -1 40 3 68 10 70 6 2 43 -34 83 -81 72 -85 97 -104 113 -88 6 6 -15 34
-49 68 -32 32 -72 76 -87 96 -27 36 -27 39 -13 62 9 13 43 47 76 76 64 56 71
67 45 77 -11 4 -40 -18 -93 -71 -42 -42 -80 -76 -85 -76 -5 0 -7 75 -5 167 3
120 1 167 -8 170 -6 2 -14 0 -17 -6z"/>
<path d="M1974 706 c-18 -8 -35 -19 -38 -25 -5 -8 -15 -5 -33 9 -19 15 -30 17
-44 9 -18 -9 -19 -24 -18 -247 0 -130 4 -245 8 -256 10 -26 128 -33 188 -10
152 57 220 377 104 488 -46 44 -111 56 -167 32z m128 -82 c44 -76 29 -244 -30
-329 -35 -52 -94 -82 -128 -66 -38 17 -46 54 -42 186 5 132 22 183 75 225 41
32 101 25 125 -16z"/>
<path d="M1173 633 c-20 -7 -15 -41 7 -48 24 -7 40 1 40 20 0 17 -30 34 -47
28z"/>
<path d="M2845 610 c-15 -46 53 -79 79 -37 16 25 -4 51 -42 55 -24 2 -32 -1
-37 -18z"/>
<path d="M437 492 c-73 -76 -77 -274 -6 -313 13 -6 40 -12 61 -12 71 0 118 69
118 175 0 69 -19 117 -62 153 -39 33 -77 32 -111 -3z m106 -27 c41 -40 48
-177 12 -231 -36 -56 -104 -54 -126 3 -26 65 -4 199 38 231 23 16 58 15 76 -3z"/>
<path d="M1564 495 c-47 -47 -70 -204 -39 -265 8 -16 24 -34 34 -40 48 -25
135 2 161 50 21 38 -1 41 -41 5 -62 -56 -129 -42 -129 26 0 29 2 30 34 24 43
-9 90 15 116 58 30 48 25 75 -19 117 -50 48 -86 56 -117 25z m95 -41 c25 -32
26 -55 6 -94 -16 -30 -53 -47 -80 -36 -53 20 -21 156 36 156 10 0 27 -12 38
-26z"/>
<path d="M2598 503 c-43 -50 -50 -118 -18 -170 20 -33 44 -51 95 -68 33 -11
40 -38 12 -43 -29 -6 -65 6 -87 30 -17 18 -23 20 -45 10 -14 -6 -25 -16 -25
-22 0 -14 56 -48 102 -61 73 -23 158 18 158 76 0 22 -9 30 -61 55 -33 15 -69
36 -80 46 -36 32 -17 114 26 114 23 0 36 -35 25 -65 -8 -22 -7 -27 15 -37 19
-8 28 -8 40 2 20 16 19 69 -1 98 -34 49 -126 69 -156 35z"/>
<path d="M3031 496 c-49 -52 -85 -208 -61 -265 6 -17 23 -37 36 -46 26 -17 99
-20 109 -5 14 23 25 7 25 -35 0 -78 -64 -111 -124 -64 -30 24 -56 19 -56 -10
0 -27 33 -48 95 -62 45 -10 57 -9 89 6 20 10 42 27 48 39 7 12 12 82 13 166 2
80 6 153 10 162 5 13 -9 33 -51 78 -66 67 -96 76 -133 36z m80 -52 c42 -51 36
-178 -11 -216 -27 -22 -34 -22 -54 -2 -28 28 -17 156 18 209 19 29 29 31 47 9z"/>
<path d="M3298 509 c-16 -9 -18 -28 -18 -157 0 -157 4 -172 47 -172 22 0 22 3
21 78 -1 85 20 150 60 186 48 42 72 -14 72 -165 0 -90 2 -97 21 -102 48 -13
52 -1 46 107 -3 56 -12 119 -20 141 -24 68 -105 106 -152 71 -17 -12 -21 -12
-33 5 -15 22 -20 22 -44 8z"/>
<path d="M3663 498 c-75 -83 -45 -184 70 -232 22 -9 37 -22 37 -32 0 -25 -79
-12 -102 16 -12 15 -23 19 -42 14 -45 -11 -33 -42 27 -69 63 -30 111 -31 155
-5 32 20 57 63 46 81 -3 5 -37 25 -75 45 -77 38 -97 65 -82 110 22 66 80 51
69 -18 -6 -35 -4 -38 20 -44 20 -5 31 -2 41 11 28 40 8 93 -47 124 -49 28 -91
27 -117 -1z"/>
<path d="M2318 493 c-44 -50 -73 -163 -58 -227 14 -63 44 -86 109 -86 64 0
124 25 129 54 7 32 -12 38 -59 17 -57 -27 -84 -26 -103 1 -25 35 -19 45 27 45
82 0 144 59 128 122 -4 14 -27 41 -50 59 -48 36 -99 43 -123 15z m90 -55 c7
-7 12 -24 12 -38 0 -34 -17 -50 -52 -50 -21 0 -29 6 -34 25 -12 49 42 95 74
63z"/>
<path d="M2843 494 c-3 -8 -4 -75 -1 -149 5 -140 13 -169 51 -163 18 3 19 14
21 160 3 151 2 157 -18 162 -34 9 -46 7 -53 -10z"/>
<path d="M1160 345 c0 -97 4 -155 10 -155 6 0 12 -1 15 -2 3 -2 7 68 8 155 3
146 2 157 -15 157 -17 0 -18 -12 -18 -155z"/>
</g>
</svg>
